<svg height="512" viewBox="0 0 60 60" width="512" xmlns="http://www.w3.org/2000/svg"><g id="Page-1" fill="none" fill-rule="evenodd"><g id="011---Boardgame-Piece" fill="rgb(0,0,0)" fill-rule="nonzero" transform="translate(-1 -1)"><path id="Shape" d="m55.7 23.6-3.53-3.53c-.7794261-.7787199-1.8114882-1.2532557-2.91-1.338l-6.034-.464c-.2643372-.0214857-.5014687-.1708599-.635-.4l-8.03-13.7c-1.6605222-2.82598275-5.1823237-3.94863239-8.172-2.605-5.4824778 2.4637602-10.5263697 5.80530061-14.933 9.893-4.08769939 4.4066303-7.4292398 9.4505222-9.893 14.933-1.34374443 2.9922402-.21778638 6.5162475 2.612 8.175l13.7 8.03c.2291401.1335313.3785143.3706628.4.635l.464 6.035c.0849771 1.0981596.5594956 2.1298296 1.338 2.909l3.523 3.527c1.8037998 1.7998973 4.7242002 1.7998973 6.528 0l1.211-1.211 5.685 5.685c1.097151 1.0960805 2.874849 1.0960805 3.972 0l1.281-1.274c1.0959659-1.096808 1.0959659-2.874192 0-3.971l-5.686-5.686 1.438-1.443c1.183.22 3.685.151 6.805-2.97s3.191-5.62 2.97-6.8l1.438-1.438 5.686 5.686c1.096808 1.0959659 2.874192 1.0959659 3.971 0l1.278-1.278c1.0949791-1.0976066 1.0949791-2.8743934 0-3.972l-5.685-5.685 1.208-1.212c1.8007925-1.8046007 1.8007925-4.7263993 0-6.531zm-14.837 32.742c.3152023.3158081.3152023.8271919 0 1.143l-1.278 1.278c-.3200344.3057798-.8239656.3057798-1.144 0l-5.685-5.685 1.16-1.161 1.261-1.261zm12.215-23.586 5.685 5.685c.3158683.3159229.3158683.8280771 0 1.144l-1.278 1.278c-.1515422.1516259-.3571278.2368155-.5715.2368155s-.4199578-.0851896-.5715-.2368155l-5.686-5.686 1.261-1.261zm1.211-4.039-3.562 3.562-2.192 2.191-2.556 2.556c-.2876726.3026637-.3664297.7480353-.2 1.131.035.083.84 2.064-2.359 5.262s-5.179 2.394-5.238 2.37c-.3853051-.1926528-.8506823-.1169031-1.155.188l-2.556 2.556-2.191 2.192-3.562 3.562c-1.0227984 1.0191363-2.6772016 1.0191363-3.7 0l-3.53-3.53c-.4411278-.4417559-.7099457-1.026559-.758-1.649l-.464-6.034c-.0706619-.91732-.5862174-1.7418352-1.38-2.207l-13.7-8.031c-1.9506251-1.1418678-2.72681965-3.5704943-1.8-5.632 2.36146522-5.2615914 5.56480099-10.1030733 9.484-14.334 4.2317515-3.91831489 9.0739091-7.12063744 14.336-9.481 2.0615611-.92583903 4.4895183-.1498584 5.632 1.8l8.031 13.7c.4651648.7937826 1.28968 1.3093381 2.207 1.38l6.033.464c.6227931.0478215 1.2079884.3166567 1.65.758l3.53 3.53c1.0175772 1.0218816 1.0175772 2.6741184 0 3.696z"/><path id="Shape" d="m31.4 17.222c.6406139-.3807413 1.0971136-1.0074797 1.263-1.734.1662583-.7243648.0431905-1.4850172-.343-2.12l-2.266-3.781c-.7876268-1.32664028-2.4760772-1.80434605-3.842-1.087-3.7304446 2.0156947-7.1824772 4.5086612-10.269 7.416-2.9175193 3.0941295-5.4174264 6.5568841-7.436 10.3-.71888798 1.3684165-.23810514 3.0601739 1.093 3.846l3.787 2.264c.444542.2671955.9533375.408566 1.472.409.9711896.0040275 1.8729153-.5030507 2.374-1.335 1.7068844-2.9302859 3.7507817-5.6507836 6.09-8.106 2.4465028-2.3318506 5.1572362-4.3696831 8.077-6.072zm-15.883 13.155c-.114446.1800341-.2967597.3062082-.5055706.3498909s-.4264134.0011701-.6034294-.1178909l-3.786-2.264c-.4102687-.2275046-.570658-.7363562-.365-1.158 1.9152913-3.5874329 4.3032618-6.9016669 7.1-9.854 2.9448969-2.7870751 6.2487572-5.1684508 9.824-7.081.1142163-.0643949.242887-.0987988.374-.1.3233682.0062641.6202596.1800819.784.459l2.267 3.78c.118655.1908609.1577861.4206218.109.64-.0443399.1968294-.1676424.3667771-.341.47-3.0614155 1.7875926-5.9025069 3.9282283-8.465 6.378-2.4558519 2.5727898-4.6011992 5.424974-6.392 8.498z"/><path id="Shape" d="m25.521 25.521c-3.1304145 3.1301849-4.0669693 7.8378875-2.3729383 11.9278523 1.6940311 4.0899647 5.685026 6.7567151 10.1119383 6.7567151s8.4179072-2.6667504 10.1119383-6.7567151c1.694031-4.0899648.7574762-8.7976674-2.3729383-11.9278523-4.2767333-4.2678461-11.2012667-4.2678461-15.478 0zm14.064 14.064c-3.4924825 3.4894357-9.1521919 3.4877892-12.6426435-.003678-3.4904517-3.4914672-3.4904517-9.1511768 0-12.642644 3.4904516-3.4914672 9.150161-3.4931137 12.6426435-.003678 3.4870841 3.4957326 3.4870841 9.1542674 0 12.65z"/><path id="Shape" d="m30.635 30.635c-1.0624896 1.0616908-1.38067 2.6589373-.8061318 4.0467332.5745382 1.3877958 1.9286094 2.2927414 3.4306318 2.2927414s2.8560936-.9049456 3.4306318-2.2927414c.5745382-1.3877959.2563578-2.9850424-.8061318-4.0467332-1.4685936-1.4025464-3.7804064-1.4025464-5.249 0zm3.835 3.835c-.6770167.6477546-1.7439833.6477546-2.421 0-.4903683-.4897423-.6373265-1.2267057-.3723149-1.8670786s.8897719-1.0579687 1.5828149-1.0579687 1.3178033.4175958 1.5828149 1.0579687.1180534 1.3773363-.3723149 1.8670786z"/></g></g></svg>