<svg height="512" viewBox="0 0 54 60" width="512" xmlns="http://www.w3.org/2000/svg"><g id="Page-1" fill="none" fill-rule="evenodd"><g id="013---Golf" fill="rgb(0,0,0)" fill-rule="nonzero"><circle id="Oval" cx="19" cy="41" r="1"/><circle id="Oval" cx="19" cy="37" r="1"/><circle id="Oval" cx="19" cy="33" r="1"/><circle id="Oval" cx="19" cy="29" r="1"/><circle id="Oval" cx="15" cy="39" r="1"/><circle id="Oval" cx="15" cy="35" r="1"/><circle id="Oval" cx="11" cy="37" r="1"/><circle id="Oval" cx="11" cy="33" r="1"/><circle id="Oval" cx="27" cy="37" r="1"/><circle id="Oval" cx="27" cy="33" r="1"/><circle id="Oval" cx="15" cy="31" r="1"/><circle id="Oval" cx="23" cy="39" r="1"/><circle id="Oval" cx="23" cy="35" r="1"/><circle id="Oval" cx="23" cy="31" r="1"/><path id="Shape" d="m16.168 56.555 2 3c.1854732.2781551.4976789.4452244.832.4452244s.6465268-.1670693.832-.4452244l2-3c.1092599-.1645007.1676876-.3575206.168-.555v-5.7l3.479-5.218c4.4840222-2.8762566 6.535022-8.3643793 5.0363693-13.4764579-1.4986527-5.1120785-6.1881461-8.6241638-11.5153693-8.6241638s-10.01671659 3.5120853-11.51536931 8.6241638c-1.49865271 5.1120786.55234713 10.6002013 5.03636931 13.4764579l3.479 5.218v5.7c.0003124.1974794.0587401.3904993.168.555zm3.832-.855-1 1.5-1-1.5v-4.7h2zm-11-20.7c0-5.5228475 4.4771525-10 10-10s10 4.4771525 10 10-4.4771525 10-10 10c-5.5203344-.0060624-9.99393763-4.4796656-10-10zm10 12c1.0383011-.0038675 2.0716704-.1430396 3.074-.414l-1.609 2.414h-2.93l-1.609-2.414c1.0023296.2709604 2.0356989.4101325 3.074.414z"/><path id="Shape" d="m2.325 21.077c-2.558 5.811-2.017 13.309 1.317 18.234.30983174.4578441.93215594.5778317 1.39.268s.57783174-.9321559.268-1.39c-2.971-4.389-3.441-11.089-1.145-16.304 2.1935103-4.6501708 7.5627628-6.8706165 12.4-5.128l22.751 9.229c.845159.3428139 1.8003707.2825441 2.5957384-.1637801.7953676-.4463242 1.3445084-1.2302287 1.4922616-2.1302199l.79-4.822c.1668585-.9515563.7246036-1.789743 1.5378867-2.3111563s1.8077649-.6783927 2.7421133-.4328437c.9103657.2440527 1.6834201.8457404 2.1434927 1.6683342.4600725.8225939.5680903 1.7962331.2995073 2.6996658l-1.907 10.7c-1.3 7.247-8.519 11.065-14.311 12.133-1.461.276-3 .486-4.564.627-.3579738.0291255-.672835.2479846-.8248788.573371-.1520437.3253863-.1179153.7073183.0894104 1.0005923s.556002.4528411.9134684.4180367c1.632-.146 3.232-.366 4.752-.653 6.413-1.183 14.43-5.493 15.909-13.747l1.891-10.615c.4371024-1.5646545.1374643-3.2432168-.814-4.56l1.906-11.742c.3200797-2.1606306-1.1548399-4.17763796-3.3108206-4.52767035-2.1559808-.35003238-4.1932617 1.0967547-4.5731794 3.24767035l-1.951 11.951c-.954956.8295281-1.6173275 1.9445843-1.889 3.18l-.8 4.89c-.0494766.2997017-.2324938.5606682-.4974184.709275-.2649247.1486067-.5830338.1687419-.8645816.054725l-22.756-9.234c-5.840609-2.1909097-12.38120514.5061038-14.98 6.177zm45.712-17.406c.1910084-1.07247701 1.2073706-1.79316886 2.2826459-1.61860054 1.0752753.17456833 1.8114414 1.17977887 1.6533541 2.25760054l-1.7 10.439c-.4074853-.2402405-.8444831-.4264688-1.3-.554-.8708482-.2304625-1.7857849-.2373417-2.66-.02z"/><path id="Shape" d="m13.239 20.125c.6208523-.0048373 1.2367966.1102703 1.814.339.3340777.1480727.7223212.1021295 1.012611-.1198284.2902897-.2219579.4363959-.5845828.3810718-.9457928-.055324-.36121-.3032676-.6634811-.6466828-.7883788-.81503-.3255487-1.6853735-.490245-2.563-.485-3.0940258.0079266-5.91177619 1.7822239-7.256 4.569-.22367531.5053405.00465947 1.0963247.51000001 1.32s1.09632466-.0046595 1.31999999-.51c1.02681289-2.0603074 3.1260292-3.3670966 5.428-3.379z"/><path id="Shape" d="m34.311 41.363c5.167-.953 11.6-4.28 12.716-10.522.0974782-.5437243-.2642757-1.0635217-.808-1.1609999-.5437243-.0974783-1.0635217.2642756-1.161.8079999-.938 5.236-6.571 8.071-11.109 8.908-.3513707.0646651-.6415522.3118721-.761236.6485006-.1196837.3366285-.0506869.7115366.181.9835.231687.2719634.5908653.3996645.942236.3349994z"/><path id="Shape" d="m27 4.032c-.2317971-.12890498-.5053092-.16044448-.7603615-.08767956s-.4707502.24387315-.5996385.47567956l-5 9c-.2684104.4826969-.0946968 1.0915896.388 1.36.4826969.2684103 1.0915896.0946968 1.36-.388l5-9c.128905-.23179713.1604445-.50530923.0876796-.76036152-.072765-.25505229-.2438732-.47075019-.4756796-.59963848z"/><path id="Shape" d="m35.165 2.126c-.2317971-.12890498-.5053092-.16044448-.7603615-.08767956s-.4707502.24387315-.5996385.47567956l-7.17 12.906c-.2684104.4826969-.0946968 1.0915896.388 1.36.4826969.2684103 1.0915896.0946968 1.36-.388l7.17-12.906c.128905-.23179713.1604445-.50530923.0876796-.76036152-.072765-.25505229-.2438732-.47075019-.4756796-.59963848z"/><path id="Shape" d="m33.023 18.78c.2317971.128905.5053092.1604445.7603615.0876796.2550523-.072765.4707502-.2438732.5996385-.4756796l3.491-6.284c.2546059-.4811451.0775896-1.0775592-.3982771-1.3418993-.4758666-.2643401-1.0757579-.099492-1.3497229.3708993l-3.491 6.283c-.128905.2317971-.1604445.5053092-.0876796.7603615.072765.2550523.2438732.4707502.4756796.5996385z"/></g></g></svg>