<?xml version="1.0" encoding="iso-8859-1"?>
<!-- Generator: Adobe Illustrator 19.0.0, SVG Export Plug-In . SVG Version: 6.00 Build 0)  -->
<svg version="1.1" id="Layer_1" xmlns="http://www.w3.org/2000/svg" xmlns:xlink="http://www.w3.org/1999/xlink" x="0px" y="0px"
	 viewBox="0 0 512.001 512.001" style="enable-background:new 0 0 512.001 512.001;" xml:space="preserve">
<g>
	<g>
		<g>
			<rect x="207.97" y="208.147" width="96.071" height="15.65"/>
			<rect x="223.975" y="232.165" width="16.012" height="15.65"/>
			<rect x="247.992" y="232.165" width="16.011" height="15.65"/>
			<rect x="272.01" y="232.165" width="16.012" height="15.65"/>
			<rect x="215.972" y="464.331" width="80.056" height="15.65"/>
			<path d="M328.05,8.006c-10.656,0-21.002,2.618-30.267,7.616C286.177,5.504,271.563,0,256,0c-13.095,0-25.918,4.067-36.597,11.534
				c-6.247-2.343-12.765-3.529-19.442-3.529c-30.178,0-54.842,24.055-55.829,53.996C129,74.088,120.084,92.436,120.084,111.899
				c0,23.623,12.903,44.278,32.022,55.324v88.776c0,13.144,10.693,23.837,23.838,23.837c4.515,0,8.187,3.673,8.187,8.187
				l-0.002,223.977h143.742l-0.002-223.977c0-4.515,3.673-8.187,8.187-8.187c13.145,0,23.838-10.693,23.838-23.837V127.194
				c19.118-11.047,32.021-31.701,32.021-55.324C391.914,36.655,363.265,8.006,328.05,8.006z M344.244,152.106h-0.001h-32.204v15.65
				h32.204v88.242c0,4.515-3.674,8.187-8.188,8.187c-13.144,0-23.837,10.693-23.837,23.837l0.002,208.327h-112.44l0.002-208.327
				c0-13.144-10.693-23.837-23.837-23.837c-4.515,0-8.188-3.673-8.188-8.187v-82.321c5.174,1.357,10.599,2.086,16.193,2.086
				c11.278,0,21.893-2.892,31.109-8.007h80.97v-15.65H233.66c5.825-7.213,10.126-15.746,12.375-25.161
				c3.294,0.522,6.624,0.785,9.965,0.785c10.657,0,21.003-2.617,30.267-7.615c11.606,10.117,26.221,15.621,41.784,15.621
				c5.593,0,11.019-0.728,16.193-2.086V152.106z M328.05,120.085c-13.349,0-25.782-5.377-35.01-15.142l-4.566-4.831l-5.506,3.724
				c-7.973,5.393-17.3,8.243-26.969,8.243c-4.742,0-9.458-0.702-14.021-2.087l-9.122-2.769l-0.938,9.486
				c-2.448,24.744-23.069,43.403-47.97,43.403c-26.584,0-48.214-21.629-48.214-48.214c0-15.766,7.76-30.57,20.758-39.602
				l3.537-2.457l-0.184-4.302c-0.014-0.322-0.034-0.642-0.056-0.961c-0.017-0.236-0.039-0.472-0.039-0.712
				c0-22.171,18.037-40.21,40.21-40.21c5.944,0,11.73,1.317,17.196,3.913l4.48,2.127l3.836-3.143
				C234.056,19.522,244.898,15.65,256,15.65c13.349,0,25.782,5.377,35.01,15.142l4.566,4.831l5.505-3.723
				c7.976-5.393,17.302-8.245,26.971-8.245c26.584,0,48.214,21.629,48.214,48.214C376.264,98.455,354.636,120.085,328.05,120.085z"
				/>
			<path d="M167.757,111.898h-15.65c0,17.558,14.284,31.843,31.843,31.843v-15.65C175.02,128.091,167.757,120.827,167.757,111.898z"
				/>
		</g>
	</g>
</g>
<g>
</g>
<g>
</g>
<g>
</g>
<g>
</g>
<g>
</g>
<g>
</g>
<g>
</g>
<g>
</g>
<g>
</g>
<g>
</g>
<g>
</g>
<g>
</g>
<g>
</g>
<g>
</g>
<g>
</g>
</svg>
