<?xml version="1.0" encoding="UTF-8" standalone="no"?>
<!-- Created with Inkscape (http://www.inkscape.org/) -->
<svg
   xmlns:svg="http://www.w3.org/2000/svg"
   xmlns="http://www.w3.org/2000/svg"
   version="1.0"
   width="1049.5276"
   height="196.65353"
   id="svg2">
  <defs
     id="defs4" />
  <g
     transform="translate(246.37027,180.25198)"
     id="layer1">
    <g
       transform="translate(17.789769,17.773033)"
       id="g50703">
      <path
         d="M -246.37027,-177.16042 L 563.78723,-177.16807 L 563.78723,-22.32982 L -246.37027,-22.32217 L -246.37027,-177.16042"
         style="fill:#ec1b24;fill-rule:nonzero;stroke:none"
         id="path46293" />
      <path
         d="M 329.54003,-149.32108 C 336.51139,-149.32108 340.83498,-146.74984 347.35477,-138.42407 L 395.83263,-69.05521 C 398.41146,-65.42037 398.15893,-59.63518 393.71289,-55.87783 C 389.77194,-52.54909 382.80064,-52.24298 379.02033,-57.23994 L 367.41934,-73.29468 L 291.06388,-73.29468 L 279.47819,-56.94155 C 275.39183,-52.08993 270.38716,-52.08993 265.84929,-55.12027 C 261.12776,-58.26541 259.934,-64.35671 262.81895,-68.60377 L 311.74825,-138.42407 C 317.962,-147.05594 322.87484,-149.32108 329.54003,-149.32108 z M 332.44028,-123.64733 C 331.16234,-125.52218 330.68794,-125.69819 329.32582,-125.69819 C 327.80299,-125.69819 327.20608,-124.94058 326.17303,-123.5555 C 324.5048,-121.32863 305.06776,-92.67816 304.84583,-92.67816 L 353.93584,-92.67816 C 353.84401,-92.67816 335.14927,-119.6375 332.44028,-123.64733"
         style="fill:#ffffff;fill-rule:nonzero;stroke:none"
         id="path46321" />
      <path
         d="M -1.1192345,-149.20629 L 68.716375,-149.20629 C 86.041395,-149.20629 87.633095,-129.26416 87.633095,-129.26416 L 1.7121355,-129.26416 C -2.5425745,-129.26416 -6.4911845,-126.05015 -6.4911845,-120.46393 C -6.4911845,-114.08948 -1.6472145,-111.05914 1.4060955,-111.05914 L 62.127705,-111.05914 C 74.157255,-111.05914 91.275595,-101.04219 91.275595,-83.74018 C 91.275595,-61.28044 71.387105,-53.29899 64.461655,-53.29899 L -6.5830145,-53.29899 C -27.695945,-53.29899 -26.525145,-73.42478 -26.525145,-73.42478 L 61.523145,-73.42478 C 65.043265,-73.42478 70.231545,-76.91423 70.231545,-82.13318 C 70.231545,-87.11484 65.678435,-90.93341 62.334335,-90.93341 L 2.8294355,-90.93341 C -14.051735,-90.93341 -27.129645,-103.46797 -27.129645,-120.46393 C -27.129645,-139.58722 -10.715285,-149.20629 -1.1192345,-149.20629"
         style="fill:#ffffff;fill-rule:nonzero;stroke:none"
         id="path46349" />
      <path
         d="M 446.51446,-149.33638 L 518.63052,-149.33638 C 529.55813,-149.33638 546.50812,-140.40606 546.50812,-119.04825 L 546.50812,-117.68613 C 546.50812,-106.31471 539.38376,-96.32831 529.38977,-91.48434 C 529.38977,-91.48434 530.10907,-90.39007 545.59751,-69.37663 C 547.60245,-66.66004 547.71724,-60.13254 543.32478,-56.19924 C 539.13888,-52.44195 532.15227,-51.96748 528.63216,-56.04619 C 523.71172,-61.73955 518.02601,-69.22357 502.42278,-89.05856 L 474.23907,-89.05856 C 466.2117,-89.05856 455.3071,-95.42536 455.3071,-109.5057 L 516.20473,-109.5057 C 519.51058,-109.64345 524.81365,-112.81154 524.81365,-119.03294 C 524.81365,-124.78752 519.71714,-128.72848 516.17412,-128.72848 L 448.9097,-128.72848 L 448.96326,-64.97651 C 448.97092,-58.01287 443.63717,-53.32195 437.88259,-53.32195 C 432.42647,-53.32195 426.97799,-58.16592 426.97799,-64.67806 L 426.97799,-129.6468 C 426.97799,-140.55911 438.48715,-149.33638 446.51446,-149.33638"
         style="fill:#ffffff;fill-rule:nonzero;stroke:none"
         id="path46377" />
      <path
         d="M 149.28829,-149.17574 L 221.40434,-149.17574 C 232.33196,-149.17574 249.28194,-140.23776 249.28194,-118.8876 L 249.28194,-117.52548 C 249.28194,-106.14642 242.16524,-96.16773 232.1636,-91.32376 C 232.1636,-91.32376 226.99056,-89.65553 222.14665,-89.04332 L 176.84454,-89.04332 C 168.81717,-89.04332 158.51707,-95.55552 158.51707,-109.64357 L 218.8102,-109.64357 C 222.11604,-109.78126 227.58747,-112.65096 227.58747,-118.87229 C 227.58747,-124.62688 222.49096,-128.56789 218.94795,-128.56789 L 151.69883,-128.57554 L 151.73709,-64.81593 C 151.74474,-57.85222 146.411,-53.1613 140.65642,-53.1613 C 135.20029,-53.1613 129.75182,-58.00528 129.75182,-64.51747 L 129.75182,-129.48615 C 129.75182,-140.39847 141.26098,-149.17574 149.28829,-149.17574"
         style="fill:#ffffff;fill-rule:nonzero;stroke:none"
         id="path46405" />
      <path
         d="M 602.40113,-97.65982 C 602.40113,-67.94564 617.36154,-41.33832 643.71631,-28.32164 C 668.4871,-16.08547 701.49178,-16.08547 726.33908,-28.32164 C 750.84198,-40.38945 767.57778,-67.94564 767.57778,-97.65982 C 767.57778,-143.10734 731.22128,-180.25198 684.98568,-180.25198 C 638.54334,-180.25198 602.40113,-143.39814 602.40113,-97.65982"
         style="fill:#157946;fill-rule:nonzero;stroke:none"
         id="path46433" />
      <path
         d="M 685.03148,-158.84072 C 676.72098,-130.65695 651.95024,-89.35708 633.88297,-69.10891 L 676.72098,-69.10891 L 676.82048,-56.83447 C 676.72098,-49.87848 671.18832,-42.65458 663.13799,-42.75407 C 651.95024,-42.88416 637.96167,-48.0572 629.50581,-62.40539 C 623.34564,-72.87385 618.87665,-81.12315 618.87665,-97.65994 C 618.87665,-133.78678 647.97862,-163.7229 684.99318,-163.7229 C 721.60218,-163.7229 751.10978,-132.91444 751.10978,-97.65994 C 751.10978,-81.12315 743.38848,-66.82081 740.84028,-62.69619 C 731.80278,-48.0572 718.03618,-42.88416 707.38408,-42.75407 C 700.03778,-42.66224 693.26538,-48.0572 693.26538,-56.87274 L 693.26538,-69.10891 L 736.76158,-69.10891 C 718.03618,-89.35708 693.26538,-130.65695 685.03148,-158.84072"
         style="fill:#ffffff;fill-rule:nonzero;stroke:none"
         id="path46461" />
    </g>
  </g>
</svg>
