<svg id="Capa_1" enable-background="new 0 0 512 512" height="512" viewBox="0 0 512 512" width="512" xmlns="http://www.w3.org/2000/svg"><path d="m468 271.752v-13.252c0-15.163-12.336-27.5-27.5-27.5h-54.129l-2.632-30h13.461c1.22 8.466 8.502 15 17.3 15h20c9.649 0 17.5-7.851 17.5-17.5v-66c0-9.649-7.851-17.5-17.5-17.5h-20c-9.649 0-17.5 7.851-17.5 17.5v17.5h-17.734l-7.2-82.083 5.777-28.883c.103-.526.159-1.066.158-1.601v-24.933c-.001-6.893-5.608-12.5-12.501-12.5h-222c-6.893 0-12.5 5.607-12.5 12.5v24.835c-.769-.486 8.735 31.284 8.826 31.827l-7.092 80.838h-17.734v-17.5c0-9.649-7.851-17.5-17.5-17.5h-20c-9.649 0-17.5 7.851-17.5 17.5v66c0 9.649 7.851 17.5 17.5 17.5h20c8.798 0 16.081-6.534 17.3-15h13.461l-2.632 30h-53.129c-15.164 0-27.5 12.337-27.5 27.5v12.855c-17.553 6.984-30 24.133-30 44.145v46c0 9.649 7.851 17.5 17.5 17.5h12.5v95.5c0 20.678 16.822 37.5 37.5 37.5h20c20.678 0 37.5-16.822 37.5-37.5v-35.5h85v7.5c0 12.406 10.093 22.5 22.5 22.5h17c12.407 0 22.5-10.094 22.5-22.5v-7.5h85v35.5c0 20.678 16.822 37.5 37.5 37.5h20c20.678 0 37.5-16.822 37.5-37.5v-95.5h12.5c9.649 0 17.5-7.851 17.5-17.5v-46c0-19.632-11.973-36.521-29-43.748zm-15-13.252v9.643c-1.157-.085-66-.143-66-.143v-22h53.5c6.893 0 12.5 5.607 12.5 12.5zm-243 135.5v-14h93v14zm0-44h93v15h-93zm93-15h-93v-14h93zm15-21.5c0-17.735-12.596-33.187-29.95-36.738-4.061-.828-8.021 1.785-8.852 5.844s1.786 8.021 5.844 8.852c7.852 1.607 14.074 7.282 16.658 14.543h-90.41c3.096-8.729 11.432-15 21.21-15h19.5c4.142 0 7.5-3.357 7.5-7.5s-3.358-7.5-7.5-7.5h-19.5c-20.671 0-37.489 16.812-37.5 37.48 0 .007-.001.013-.001.02v.01 28.98.01s0 .006 0 .01v29.98.01s0 .006 0 .01v21.489h-55v-33.5-22.5h17.5c9.649 0 17.5-7.851 17.5-17.5v-20c0-9.649-7.851-17.5-17.5-17.5h-17.499v-37h232v37h-17.5c-9.649 0-17.5 7.851-17.5 17.5v20c0 9.649 7.851 17.5 17.5 17.5h17.5v22.5 33.5h-54zm-163.629-238.5h203.258l13.685 156h-19.97l-5.206-56.71c-.379-4.125-4.032-7.164-8.154-6.783-4.125.379-7.162 4.029-6.783 8.154l5.079 55.339h-160.56l10.064-109.643c.594-6.475 5.945-11.357 12.447-11.357h115.537c15.404-.378 12.686 20.877 14.232 30.803.747 9.706 15.969 8.304 14.938-1.371l-1.785-19.445c-1.307-14.245-13.08-24.987-27.384-24.987h-115.538c-14.304 0-26.077 10.742-27.385 24.986l-10.189 111.014h-19.97zm217.629 248h-17.5c-1.378 0-2.5-1.121-2.5-2.5v-20c0-1.379 1.122-2.5 2.5-2.5h17.5zm-232-25h17.5c1.378 0 2.5 1.121 2.5 2.5v20c0 1.379-1.122 2.5-2.5 2.5h-17.5zm272-165.5c0-1.379 1.122-2.5 2.5-2.5h20c1.378 0 2.5 1.121 2.5 2.5v66c0 1.379-1.122 2.5-2.5 2.5h-20c-1.378 0-2.5-1.121-2.5-2.5zm-15 32.5v21h-14.577l-1.842-21zm-251-150h217v15h-144c-4.142 0-7.5 3.357-7.5 7.5s3.358 7.5 7.5 7.5h142.351l-3 15h-205.563l-4.322-15h35.534c4.142 0 7.5-3.357 7.5-7.5s-3.358-7.5-7.5-7.5h-38zm-46 183.5c0 1.379-1.122 2.5-2.5 2.5h-20c-1.378 0-2.5-1.121-2.5-2.5v-66c0-1.379 1.122-2.5 2.5-2.5h20c1.378 0 2.5 1.121 2.5 2.5zm15-12.5v-21h16.419l-1.842 21zm-82.5 178c-1.378 0-2.5-1.121-2.5-2.5v-46c0-17.921 14.58-32.5 32.5-32.5 5.871.264 14.986.733 15-7.5 0-4.143-3.358-7.5-7.5-7.5-1.88.017-8.232-.052-10 .066v-9.566c0-6.893 5.607-12.5 12.5-12.5h52.5v22h-20c-4.142 0-7.5 3.357-7.5 7.5s3.358 7.5 7.5 7.5h20v47.52c-6.272-4.719-14.064-7.52-22.5-7.52h-20c-22.106-.104-39.158 19.163-37.5 41zm70 133h-20c-12.407 0-22.5-10.094-22.5-22.5v-12.5h15.5c4.142 0 7.5-3.357 7.5-7.5s-3.358-7.5-7.5-7.5h-15.5v-22h15.5c4.142 0 7.5-3.357 7.5-7.5s-3.358-7.5-7.5-7.5h-15.5v-21h15.5c4.142 0 7.5-3.357 7.5-7.5s-3.358-7.5-7.5-7.5h-15.5v-13.5c0-12.406 10.093-22.5 22.5-22.5h20c12.407 0 22.5 10.094 22.5 22.5v13.5h-15.5c-4.142 0-7.5 3.357-7.5 7.5s3.358 7.5 7.5 7.5h15.5v21h-15.5c-4.142 0-7.5 3.357-7.5 7.5s3.358 7.5 7.5 7.5h15.5v22h-15.5c-4.142 0-7.5 3.357-7.5 7.5s3.358 7.5 7.5 7.5h15.5v12.5c0 12.406-10.093 22.5-22.5 22.5zm37.5-73v-15h85v15zm132 22.5c0 4.136-3.364 7.5-7.5 7.5h-17c-4.136 0-7.5-3.364-7.5-7.5v-37.5h32zm15-22.5v-15h85v15zm142.5 73h-20c-12.407 0-22.5-10.094-22.5-22.5v-12.5h15.5c4.142 0 7.5-3.357 7.5-7.5s-3.358-7.5-7.5-7.5h-15.5v-22h15.5c4.142 0 7.5-3.357 7.5-7.5s-3.358-7.5-7.5-7.5h-15.5v-21h15.5c4.142 0 7.5-3.357 7.5-7.5s-3.358-7.5-7.5-7.5h-15.5v-13.5c0-12.406 10.093-22.5 22.5-22.5h20c12.407 0 22.5 10.094 22.5 22.5v13.5h-15.5c-4.142 0-7.5 3.357-7.5 7.5s3.358 7.5 7.5 7.5h15.5v21h-15.5c-4.142 0-7.5 3.357-7.5 7.5s3.358 7.5 7.5 7.5h15.5v22h-15.5c-4.142 0-7.5 3.357-7.5 7.5s3.358 7.5 7.5 7.5h15.5v12.5c0 12.406-10.093 22.5-22.5 22.5zm52.5-135.5c0 1.379-1.122 2.5-2.5 2.5h-12.5c1.658-21.837-15.395-41.104-37.5-41h-20c-8.436 0-16.228 2.801-22.5 7.52v-47.52h62.5c17.92 0 32.5 14.579 32.5 32.5z"/></svg>